# File created by Blade
# Date/Time:  Wed Jan 21 15:55:51 2015
# Frame Rate: 120.000 fps
#------------------------------------------------------
:FULLY-SPECIFIED
:DEGREES
183
root 18.886979 35.376480 -17.108196 -173.220404 12.194367 -179.307771
Spine 27.055314 8.122071 -4.232193
Head 20.962912 -4.607360 5.447719
LeftShoulder 3.271152 -22.645500 -4.609834
LeftArm 13.327792 51.543464 -75.903533
LeftForeArm 2.071003 -0.000000 14.800044
LeftHand -4.123551 -0.000000 1.483785
LeftHandThumb1 -26.253704 0.000000 33.147579
RightShoulder -0.531485 -10.003638 7.492969
RightArm 35.377890 -18.560898 61.152436
RightForeArm -31.600292 -0.000000 19.686724
RightHand -5.046594 0.000000 2.062860
RightHandThumb1 -24.326973 -0.000000 -32.862282
LeftUpLeg -13.942063 18.771032 1.219049
LeftLeg 14.441292 -0.000000 -0.000000
LeftFoot -26.079407 28.577190 -17.235507
LeftToeBase 25.414844 -0.000000 -0.000000
RightUpLeg -17.132889 -11.806318 -5.383501
RightLeg 13.289451 -0.000000 -0.000000
RightFoot -22.484696 -23.868757 21.190438
RightToeBase 11.170826 -0.000000 -0.000000
184
root 19.051077 35.335048 -17.068102 -173.124184 12.146637 -179.337871
Spine 27.407828 8.056923 -4.203936
Head 20.705555 -4.498917 5.347138
LeftShoulder 3.346635 -22.819795 -4.508964
LeftArm 12.902709 50.706027 -76.323637
LeftForeArm 1.616527 -0.000000 14.737549
LeftHand -4.035608 -0.000000 1.282856
LeftHandThumb1 -26.253704 0.000000 33.147579
RightShoulder -0.430174 -9.888416 7.339025
RightArm 35.438462 -18.654657 61.011167
RightForeArm -31.654581 -0.000000 19.964341
RightHand -5.127890 -0.000000 2.039075
RightHandThumb1 -24.326973 -0.000000 -32.862282
LeftUpLeg -14.421606 18.933605 1.405243
LeftLeg 15.096267 -0.000000 -0.000000
LeftFoot -26.213568 28.400917 -17.328184
LeftToeBase 25.407604 -0.000000 -0.000000
RightUpLeg -17.444143 -11.857885 -5.135775
RightLeg 13.762226 -0.000000 -0.000000
RightFoot -22.541201 -23.535771 21.222399
RightToeBase 11.396910 -0.000000 -0.000000
185
root 19.217639 35.290761 -17.017598 -173.013530 12.007824 -179.366704
Spine 27.784404 7.918613 -4.120219
Head 20.417754 -4.382212 5.171793
LeftShoulder 3.497796 -23.033896 -4.419891
LeftArm 12.457725 49.907678 -76.755126
LeftForeArm 1.095382 0.000000 14.702241
LeftHand -4.027867 -0.000000 1.192586
LeftHandThumb1 -26.253704 0.000000 33.147579
RightShoulder -0.358317 -9.826842 7.140489
RightArm 35.596171 -18.657485 60.902838
RightForeArm -31.612045 0.000000 20.252601
RightHand -5.171764 0.000000 2.042730
RightHandThumb1 -24.326973 -0.000000 -32.862282
LeftUpLeg -14.950169 18.915912 1.615687
LeftLeg 15.778093 -0.000000 -0.000000
LeftFoot -26.333270 28.286241 -17.388370
LeftToeBase 25.539091 -0.000000 -0.000000
RightUpLeg -17.808954 -11.980151 -4.854389
RightLeg 14.308520 -0.000000 -0.000000
RightFoot -22.484584 -23.236805 21.302449
RightToeBase 11.636435 -0.000000 -0.000000
186
root 19.387945 35.244757 -16.960288 -172.878328 11.860724 -179.397225
Spine 28.163721 7.737746 -4.042487
Head 20.091132 -4.254319 4.966363
LeftShoulder 3.616018 -23.384316 -4.321231
LeftArm 11.824760 48.958763 -77.341036
LeftForeArm 0.761765 -0.000000 14.683984
LeftHand -4.015945 -0.000000 1.040491
LeftHandThumb1 -26.253704 0.000000 33.147579
RightShoulder -0.217057 -9.729290 6.906365
RightArm 35.684853 -18.612416 60.870305
RightForeArm -31.791987 -0.000000 20.552157
RightHand -5.099454 -0.000000 2.073563
RightHandThumb1 -24.326973 -0.000000 -32.862282
LeftUpLeg -15.563498 19.012048 1.812801
LeftLeg 16.539941 -0.000000 -0.000000
LeftFoot -26.424797 28.020595 -17.470727
LeftToeBase 25.594832 -0.000000 -0.000000
RightUpLeg -18.246066 -12.036236 -4.580212
RightLeg 14.908686 -0.000000 -0.000000
RightFoot -22.283968 -23.135651 21.143425
RightToeBase 12.219188 -0.000000 -0.000000
187
root 19.563016 35.200135 -16.892137 -172.665335 11.726242 -179.377395
Spine 28.491979 7.575663 -3.888383
Head 19.758950 -4.146382 4.713685
LeftShoulder 3.670460 -23.596226 -4.283140
LeftArm 11.578994 48.151863 -77.594541
LeftForeArm 0.380082 -0.000000 14.580958
LeftHand -3.897269 -0.000000 1.058578
LeftHandThumb1 -26.253704 0.000000 33.147579
RightShoulder -0.052934 -9.666988 6.660630
RightArm 35.813843 -18.539352 60.808916
RightForeArm -31.959979 -0.000000 20.790768
RightHand -4.908843 -0.000000 1.900532
RightHandThumb1 -24.326973 -0.000000 -32.862282
LeftUpLeg -16.283663 19.155063 2.040711
LeftLeg 17.336985 -0.000000 -0.000000
LeftFoot -26.462585 27.721697 -17.557191
LeftToeBase 25.589455 -0.000000 -0.000000
RightUpLeg -18.851787 -12.003920 -4.245497
RightLeg 15.601254 -0.000000 -0.000000
RightFoot -22.090835 -23.246507 20.933064
RightToeBase 12.569477 -0.000000 -0.000000
